<?xml version="1.0" ?><!-- Uploaded to: SVG Repo, www.svgrepo.com, Generator: SVG Repo Mixer Tools -->
<svg fill="#000000" width="800px" height="800px" viewBox="0 0 64 64" data-name="Layer 1" id="Layer_1" xmlns="http://www.w3.org/2000/svg"><title/><rect height="9" width="22" x="2" y="53"/><rect height="2" width="23" x="31" y="25"/><path d="M43,15V2H26V6L22,9l4,1v5ZM31.707,7.293,34,9.58594l4.293-4.293L39.707,6.707l-5,5a.99963.99963,0,0,1-1.41406,0l-3-3Z"/><path d="M42,56v6h8V56a3.98734,3.98734,0,0,0-2.24371-3.57751,3,3,0,1,0-3.51258,0A3.98734,3.98734,0,0,0,42,56Z"/><path d="M59.75629,52.42249a3,3,0,1,0-3.51258,0A3.98734,3.98734,0,0,0,54,56v6h8V56A3.98734,3.98734,0,0,0,59.75629,52.42249Z"/><path d="M38,56a3.98734,3.98734,0,0,0-2.24371-3.57751,3,3,0,1,0-3.51258,0A3.98734,3.98734,0,0,0,30,56v6h8Z"/><path d="M30,24H16.62048a4.00006,4.00006,0,1,0-5.241,0H9.49622A4.49619,4.49619,0,0,0,5,28.49622V38H8V29.91418A2.38053,2.38053,0,0,1,9,28V52h4.5V38h1V52H19V27H30Z"/></svg>